<?xml version="1.0" encoding="UTF-8" standalone="no" ?>
<!DOCTYPE svg PUBLIC "-//W3C//DTD SVG 1.1//EN" "http://www.w3.org/Graphics/SVG/1.1/DTD/svg11.dtd">
<svg xmlns="http://www.w3.org/2000/svg" xmlns:xlink="http://www.w3.org/1999/xlink" version="1.1" width="500" height="500" viewBox="0 0 500 500" xml:space="preserve">
<desc>Created with Fabric.js 4.6.0</desc>
<defs>
</defs>
<g transform="matrix(0.55 0 0 0.55 178.96 218.44)" id="aPMyDYUwj2veHguogzcrD"  >
<path style="stroke: rgb(0,0,0); stroke-width: 1; stroke-dasharray: none; stroke-linecap: butt; stroke-dashoffset: 0; stroke-linejoin: miter; stroke-miterlimit: 4; fill: rgb(0,0,0); fill-rule: nonzero; opacity: 1;" vector-effect="non-scaling-stroke"  transform=" translate(0, 0)" d="M 0 -53.96476 C 29.78855 -53.96476 53.96476 -29.788549999999997 53.96476 0 C 53.96476 29.78855 29.788549999999997 53.96476 0 53.96476 C -29.78855 53.96476 -53.96476 29.788549999999997 -53.96476 0 C -53.96476 -29.78855 -29.788549999999997 -53.96476 0 -53.96476 z" stroke-linecap="round" />
</g>
<g transform="matrix(0.98 0 0 1 283.76 222.6)" id="Fiw5wweluXCvfeW4QbeCB"  >
<path style="stroke: rgb(0,0,0); stroke-opacity: 0.55; stroke-width: 8; stroke-dasharray: none; stroke-linecap: butt; stroke-dashoffset: 0; stroke-linejoin: miter; stroke-miterlimit: 4; fill: rgb(0,0,0); fill-opacity: 0.55; fill-rule: nonzero; opacity: 1;" vector-effect="non-scaling-stroke"  transform=" translate(0, 0)" d="M -81.2478 0.16316 C 79.54514999999999 -0.5710500000000001 81.2478 0.16316 81.2478 0.16316" stroke-linecap="round" />
</g>
<g transform="matrix(0.56 0 0 0.56 385.51 219.07)" id="oZHzpPtO8HfREJQcma8HR"  >
<path style="stroke: rgb(0,0,0); stroke-width: 1; stroke-dasharray: none; stroke-linecap: butt; stroke-dashoffset: 0; stroke-linejoin: miter; stroke-miterlimit: 4; fill: rgb(0,0,0); fill-rule: nonzero; opacity: 1;" vector-effect="non-scaling-stroke"  transform=" translate(0, 0)" d="M 0 -53.96476 C 29.78855 -53.96476 53.96476 -29.788549999999997 53.96476 0 C 53.96476 29.78855 29.788549999999997 53.96476 0 53.96476 C -29.78855 53.96476 -53.96476 29.788549999999997 -53.96476 0 C -53.96476 -29.78855 -29.788549999999997 -53.96476 0 -53.96476 z" stroke-linecap="round" />
</g>
<g transform="matrix(1.51 0 0 1.51 280.83 195.98)" style="" id="V0vbTQr_V_T6PZQr4V4-v"  >
		<text xml:space="preserve" font-family="Open Sans" font-size="20" font-style="normal" font-weight="normal" line-height="1.16" style="stroke: none; stroke-width: 1; stroke-dasharray: none; stroke-linecap: butt; stroke-dashoffset: 0; stroke-linejoin: miter; stroke-miterlimit: 4; fill: rgb(247,47,58); fill-rule: nonzero; opacity: 1; white-space: pre;" ><tspan x="-75" y="6.28" style="white-space: pre; ">          24/7</tspan></text>
</g>
<g transform="matrix(1.56 0 0 1.56 287.03 244.88)" style="" id="gPb9LdFPSDwtJFAoL_JMv"  >
		<text xml:space="preserve" font-family="Open Sans" font-size="20" font-style="normal" font-weight="normal" line-height="1.16" style="stroke: none; stroke-width: 1; stroke-dasharray: none; stroke-linecap: butt; stroke-dashoffset: 0; stroke-linejoin: miter; stroke-miterlimit: 4; fill: rgb(247,47,58); fill-rule: nonzero; opacity: 1; white-space: pre;" ><tspan x="-75" y="6.28" style="white-space: pre; ">         GYM </tspan></text>
</g>
<g transform="matrix(0.78 0 0 0.78 178.96 218.44)" style="" id="GXzmkWVTBS6FX1k7DXcOm"  >
		<text xml:space="preserve" font-family="Open Sans" font-size="20" font-style="normal" font-weight="normal" line-height="1.16" style="stroke: none; stroke-width: 1; stroke-dasharray: none; stroke-linecap: butt; stroke-dashoffset: 0; stroke-linejoin: miter; stroke-miterlimit: 4; fill: rgb(255,255,255); fill-rule: nonzero; opacity: 1; white-space: pre;" ><tspan x="-25.8" y="6.28" >100lb</tspan></text>
</g>
<g transform="matrix(0.78 0 0 0.78 385.51 217.45)" style="" id="xsnFq1LjgYx2PsgizNKy7"  >
		<text xml:space="preserve" font-family="Open Sans" font-size="20" font-style="normal" font-weight="normal" line-height="1.16" style="stroke: none; stroke-width: 1; stroke-dasharray: none; stroke-linecap: butt; stroke-dashoffset: 0; stroke-linejoin: miter; stroke-miterlimit: 4; fill: rgb(255,255,255); fill-rule: nonzero; opacity: 1; white-space: pre;" ><tspan x="-25.8" y="6.28" >100lb</tspan></text>
</g>
</svg>